<?xml version="1.0" encoding="utf-8"?>
<!-- Generator: Adobe Illustrator 21.0.0, SVG Export Plug-In . SVG Version: 6.00 Build 0)  -->
<svg version="1.1" id="Layer_1" xmlns="http://www.w3.org/2000/svg" xmlns:xlink="http://www.w3.org/1999/xlink" x="0px" y="0px"
	 viewBox="0 0 2156 800" style="enable-background:new 0 0 2156 800;" xml:space="preserve">
<style type="text/css">
	.st0{fill:#F46767;}
</style>
<g>
	<g>
		<g>
			<path d="M1604.3,366.7c0-7.9-6.4-14.3-14.3-14.3c-7.9,0-14.3,6.4-14.3,14.3c0,37.7,41.5,89.4,46.3,95.1c2.8,3.4,7,5.2,11.1,5.2
				c3.2,0,6.4-1.1,9.1-3.3c6.1-5,7-14.1,2-20.2C1628.7,424.9,1604.3,387.4,1604.3,366.7z"/>
			<path d="M1905.5,352.3c-7.9,0-14.3,6.4-14.3,14.3c0,20.7-24.4,58.2-39.8,77c-5,6.1-4.1,15.2,2,20.2c2.7,2.2,5.9,3.3,9.1,3.3
				c4.1,0,8.2-1.8,11.1-5.2c4.7-5.8,46.3-57.5,46.3-95.1C1919.8,358.7,1913.4,352.3,1905.5,352.3z"/>
			<path d="M1747.8,352.3c-7.9,0-14.3,6.4-14.3,14.3v86c0,7.9,6.4,14.3,14.3,14.3s14.3-6.4,14.3-14.3v-86
				C1762.1,358.7,1755.7,352.3,1747.8,352.3z"/>
			<path d="M1905.5,122.9c-8.7,0-17.8,1.1-27.2,2.9c-31.6-36.8-78.3-60.3-130.5-60.3s-99,23.4-130.5,60.3
				c-9.4-1.8-18.5-2.9-27.2-2.9c-87,0-157.8,70.8-157.8,157.8c0,59.6,33.6,113.8,86.4,140.6l-0.3,216.7c0,15.6,6.1,30.3,17.1,41.4
				c11.1,11.1,25.8,17.2,41.4,17.2h341.8c32.3,0,58.5-26.2,58.5-58.5V421c52.6-26.9,86-81,86-140.4
				C2063.2,193.6,1992.5,122.9,1905.5,122.9z M1948.5,638c0,16.4-13.4,29.8-29.8,29.8h-341.8c-8,0-15.5-3.1-21.1-8.8
				c-5.6-5.6-8.7-13.1-8.7-21.1l0.1-56.2h401.4L1948.5,638L1948.5,638z M1957.4,398.7c-0.8,0.3-1.5,0.7-2.1,1.1
				c-1.8,1.1-3.3,2.6-4.4,4.3c-1.1,1.7-1.9,3.7-2.2,5.8c-0.1,0.8-0.2,1.6-0.2,2.4v140.8h-401.4l0.2-140.6c0-0.8,0-1.6-0.1-2.4
				c-0.3-2.2-1.1-4.2-2.3-5.9c-1.1-1.6-2.5-3.1-4.3-4.2c-0.7-0.4-1.5-0.8-2.3-1.2c-47.1-20.6-77.5-66.9-77.5-118.2
				c0-71.2,57.9-129.1,129.1-129.1c2.8,0,5.7,0.3,8.6,0.6c-14.5,25.2-22.9,54.4-22.9,85.5c0,7.9,6.4,14.3,14.3,14.3
				c7.9,0,14.3-6.4,14.3-14.3c0-79.1,64.3-143.4,143.4-143.4c79.1,0,143.4,64.3,143.4,143.4c0,7.9,6.4,14.3,14.3,14.3
				c7.9,0,14.3-6.4,14.3-14.3c0-31.1-8.4-60.3-22.9-85.5c2.9-0.2,5.8-0.6,8.6-0.6c71.2,0,129.1,57.9,129.1,129.1
				C2034.6,331.7,2004.3,378,1957.4,398.7z"/>
		</g>
	</g>
</g>
<g>
	<path d="M221.2,244.7v32.1h-108v53.6h97v30.4h-97v54.1h111.5v32.1H79V244.7H221.2z"/>
	<path d="M335.1,271.3c-9.9,0-18.1,2-24.5,6.1s-9.6,10.2-9.6,18.4c0,8.2,3.2,14.5,9.6,18.8c6.4,4.3,19.9,9,40.7,14
		c20.7,5,36.4,12.1,46.9,21.1c10.5,9.1,15.8,22.4,15.8,40.1s-6.7,32-20,43c-13.3,11-30.8,16.5-52.4,16.5
		c-31.7,0-59.7-10.9-84.3-32.7l21.4-25.8c20.5,17.8,41.7,26.6,63.7,26.6c11,0,19.7-2.4,26.2-7.1c6.5-4.7,9.7-11,9.7-18.8
		s-3-13.9-9.1-18.2c-6.1-4.3-16.6-8.3-31.4-11.9c-14.9-3.6-26.2-6.9-33.9-9.8c-7.7-3-14.6-6.9-20.6-11.7c-12-9.1-18-23-18-41.7
		c0-18.7,6.8-33.2,20.4-43.3c13.6-10.1,30.4-15.2,50.5-15.2c12.9,0,25.8,2.1,38.5,6.4c12.7,4.2,23.7,10.2,33,18l-18.2,25.8
		c-6-5.4-14.1-9.8-24.3-13.3C355.1,273,345.1,271.3,335.1,271.3z"/>
	<path d="M554.2,416.1c11.8,0,21.9-2,30.4-5.9c8.5-4,17.4-10.3,26.6-19l22,22.6c-21.4,23.7-47.4,35.6-78,35.6
		c-30.6,0-56-9.8-76.2-29.5c-20.2-19.7-30.3-44.6-30.3-74.7c0-30.1,10.3-55.2,30.8-75.3c20.6-20.1,46.5-30.1,77.9-30.1
		c31.4,0,57.6,11.6,78.6,34.7l-21.7,23.7c-9.7-9.3-18.8-15.7-27.4-19.4c-8.6-3.7-18.7-5.5-30.3-5.5c-20.5,0-37.6,6.6-51.5,19.8
		c-13.9,13.2-20.8,30.1-20.8,50.7s6.9,37.7,20.7,51.5C518.9,409.2,535.2,416.1,554.2,416.1z"/>
	<path d="M845.5,419.1c-20.5,20-45.8,30-75.9,30s-55.4-10-75.9-30c-20.5-20-30.7-44.9-30.7-74.7s10.2-54.7,30.7-74.7
		c20.5-20,45.7-30,75.9-30s55.4,10,75.9,30c20.5,20,30.7,44.9,30.7,74.7S865.9,399.1,845.5,419.1z M820.4,292.4
		c-13.8-14.3-30.7-21.4-50.8-21.4c-20.1,0-37,7.1-50.8,21.4c-13.8,14.3-20.7,31.6-20.7,52c0,20.4,6.9,37.7,20.7,52
		c13.8,14.3,30.7,21.4,50.8,21.4c20.1,0,37-7.1,50.8-21.4c13.8-14.3,20.7-31.6,20.7-52C841.1,324.1,834.2,306.7,820.4,292.4z"/>
	<path d="M924.8,447.1V244.7H959v170h92.4v32.4H924.8z"/>
	<path d="M1122.8,401l-20.3,46h-36.5l89.2-202.4h36.5l89.2,202.4h-36.5l-20.3-46H1122.8z M1210.3,369.5l-36.8-83.4l-36.8,83.4
		H1210.3z"/>
</g>
<g>
	<path class="st0" d="M80.1,527.9h64.4c15.4,0,29,3.3,40.8,9.8c11.8,6.5,21,15.7,27.5,27.5c6.5,11.8,9.8,25.6,9.8,41.3
		c0,15.7-3.3,29.5-9.8,41.3c-6.6,11.8-15.7,21-27.5,27.5c-11.8,6.5-25.4,9.8-40.8,9.8H80.1V527.9z M142.9,655.2
		c14.2,0,25.5-4.4,33.9-13.1c8.4-8.8,12.7-20.6,12.7-35.6c0-15-4.2-26.8-12.7-35.6c-8.4-8.8-19.7-13.1-33.9-13.1h-30v97.4H142.9z"/>
	<path class="st0" d="M345.6,655.9v29.2H235.8V527.9h107.1v29.2h-74.5v34.1h65.8v28.3h-65.8v36.4H345.6z"/>
	<path class="st0" d="M434.6,677.3c-11.7-7-20.9-16.6-27.5-29c-6.7-12.3-10-26.3-10-41.9c0-15.6,3.3-29.5,10-41.9
		c6.7-12.3,15.9-22,27.5-29c11.7-7,24.8-10.4,39.4-10.4c12.3,0,23.4,2.4,33.3,7.2c9.9,4.8,18.3,11.7,25,20.7l-21.1,21.5
		c-9.6-12.3-21.5-18.4-35.6-18.4c-8.8,0-16.6,2.1-23.5,6.4c-6.9,4.3-12.3,10.2-16.1,17.8c-3.8,7.6-5.8,16.3-5.8,26
		c0,9.7,1.9,18.4,5.8,26c3.8,7.6,9.2,13.6,16.1,17.8c6.9,4.3,14.7,6.4,23.5,6.4c14.2,0,26.1-6.2,35.6-18.6l21.1,21.5
		c-6.8,9.1-15.1,16.1-25.1,20.9c-10,4.8-21.1,7.2-33.4,7.2C459.3,687.8,446.3,684.3,434.6,677.3z"/>
	<path class="st0" d="M557.3,669.1c-11.3-12.4-16.9-30.2-16.9-53.2v-88h32.8v86.6c0,28.1,10.5,42.2,31.6,42.2
		c10.3,0,18.1-3.4,23.5-10.2c5.4-6.8,8.1-17.5,8.1-32v-86.6h32.4v88c0,23-5.6,40.8-16.9,53.2c-11.3,12.4-27,18.6-47.3,18.6
		C584.3,687.8,568.6,681.6,557.3,669.1z"/>
	<path class="st0" d="M689.7,527.9h32.8v127.5h71.1v29.6H689.7V527.9z"/>
	<path class="st0" d="M800.4,527.9h32.8v157.1h-32.8V527.9z"/>
	<path class="st0" d="M985.3,527.9v157.1h-26.9l-70.7-95.4v95.4h-32.4V527.9h27.1l70.5,95.4v-95.4H985.3z"/>
	<path class="st0" d="M1100.8,651.4h-65.8l-12.6,33.7h-33.6l63.2-157.1h32.4l63.4,157.1h-34.4L1100.8,651.4z M1090.4,623.8
		l-22.5-60.2l-22.5,60.2H1090.4z M1077.1,482.8h34l-36.7,32.3h-24.7L1077.1,482.8z"/>
	<path class="st0" d="M1241.3,685.1l-27.3-43.8h-1.6h-28.6v43.8H1151V527.9h61.4c12.6,0,23.5,2.3,32.7,7
		c9.2,4.6,16.4,11.2,21.4,19.8c5,8.5,7.5,18.6,7.5,30.3s-2.5,21.7-7.6,30.2c-5.1,8.5-12.3,14.9-21.6,19.4l31.8,50.5H1241.3z
		 M1233,564.6c-5.1-4.7-12.6-7.1-22.5-7.1h-26.7v54.8h26.7c9.9,0,17.3-2.4,22.5-7.2c5.1-4.8,7.7-11.5,7.7-20.2
		C1240.7,576.1,1238.1,569.4,1233,564.6z"/>
	<path class="st0" d="M1288.3,527.9h32.8v157.1h-32.8V527.9z"/>
	<path class="st0" d="M1436.5,651.4h-65.8l-12.6,33.7h-33.6l63.2-157.1h32.4l63.4,157.1h-34.4L1436.5,651.4z M1426.2,623.8
		l-22.5-60.2l-22.5,60.2H1426.2z"/>
</g>
</svg>
